<?xml version="1.0" encoding="UTF-8"?>
<svg id="katman_1" xmlns="http://www.w3.org/2000/svg" viewBox="240 360 1460 360">
  <defs>
    <style>
      .cls-1 {
        fill: #15653f;
      }
    </style>
  </defs>
  <polygon class="cls-1" points="691.63 393.67 729.32 393.67 729.32 447.13 691.63 485.78 691.63 393.67"/>
  <path class="cls-1" d="M565.98,651.8c-18.79,0-36.4-4.48-52.33-13.33-15.97-8.82-28.95-21.26-38.6-36.97-9.61-15.69-14.48-33.68-14.48-53.46s4.87-37.77,14.48-53.47c9.67-15.72,22.66-28.15,38.59-36.96,15.98-8.85,33.59-13.33,52.33-13.33,14.51,0,28.64,2.81,42,8.35,13.28,5.54,25.11,13.83,35.15,24.65,9.19,9.92,16.14,21.78,20.68,35.32h-39.45c-6.12-10.59-14.22-18.9-24.1-24.72-10.37-6.09-21.9-9.18-34.27-9.18s-23.88,3.09-34.11,9.19c-10.16,6.07-18.26,14.52-24.07,25.12-5.77,10.56-8.7,22.35-8.7,35.04s2.93,24.83,8.71,35.25c5.79,10.44,13.89,18.82,24.06,24.9,10.18,6.1,21.66,9.19,34.11,9.19h.35c15.32-.03,30.33-6.26,41.16-17.1l17.21-17.21,109.41-112.53c2-2.29,3.92-4.24,5.97-6.09,20.46-18.53,45.97-20.12,53.3-20.17h.76c8.56,0,25.29,1.45,41.24,11.22,12.14,7.43,21.68,17.77,28.36,30.74,6.7,13.02,10.1,27.77,10.1,43.84v117.24h-37.69v-111.94c0-10.97-2.02-20.83-5.99-29.32-2.41-5.19-5.62-9.79-9.53-13.67-.16-.16-3.79-3.71-8.48-6.54-1.46-.89-3.07-1.7-4.92-2.49-4.97-2.07-10.22-3.11-15.63-3.11-11.68,0-23.15,4.94-31.46,13.55l-29.36,30.4-75.11,77.74-21.35,22.13c-12.5,12.92-28.32,21.71-45.74,25.41l-.36.08-.07.03c-7.25,1.48-14.72,2.23-22.19,2.23Z"/>
  <polygon class="cls-1" points="691.63 647.32 691.63 593.57 729.32 554.54 729.32 647.32 691.63 647.32"/>
  <path class="cls-1" d="M1101.42,560.75c3.14-21.04.69-40.5-7.29-57.86-8.33-18.09-20.95-32.51-37.55-42.9-16.62-10.43-35.21-15.71-55.24-15.71-18.46,0-35.73,4.48-51.3,13.31-15.56,8.85-28.14,21.28-37.36,36.97-9.22,15.69-13.89,33.68-13.89,53.48s4.67,37.81,13.89,53.51c9.2,15.65,21.77,28.07,37.36,36.95,15.56,8.83,32.81,13.31,51.3,13.31,22.96,0,42.81-5.8,59.02-17.27,15.11-10.67,26.79-25.08,34.72-42.88h-38.72c-3.81,5.97-8.2,11.08-13.01,15.22-5.26,4.59-11.49,8.09-18.51,10.37-6.95,2.25-14.72,3.38-23.1,3.38-13.27,0-24.89-3.03-34.5-9-9.68-5.93-17.19-14.59-22.31-25.71-3.1-6.67-5.3-14.07-6.47-21.99l-.48-3.2h163.44ZM938.55,530.82l.67-3.33c1.25-6.26,3.18-12.18,5.71-17.57,5.11-10.97,12.6-19.54,22.29-25.48,9.63-5.99,21.12-9.02,34.13-9.02s23.44,2.75,32.83,8.16c9.41,5.41,16.77,12.99,21.86,22.53,3.55,6.58,5.95,13.81,7.12,21.49l.5,3.22h-125.1Z"/>
  <path class="cls-1" d="M357.71,651.8c-15.84,0-30.15-2.8-42.54-8.32-12.25-5.48-21.97-13.14-28.89-22.77-6.31-8.82-10.09-18.86-11.26-29.89h37.8c1.43,8.12,5.95,15,13.46,20.49,8.07,5.92,18.78,8.93,31.84,8.93,11.32,0,20.73-2.2,27.98-6.53,7.68-4.61,11.57-11.46,11.57-20.35,0-6.75-2.21-12.3-6.58-16.5-4.13-3.97-9.44-7.01-15.78-9.03-6.44-2.02-14.75-4.23-24.71-6.56-15.37-3.53-27.8-7.2-36.96-10.92-8.88-3.59-16.74-9.43-23.38-17.37-6.48-7.75-9.76-18.61-9.76-32.28,0-10.34,3.22-19.62,9.84-28.34,6.62-8.69,15.73-15.61,27.07-20.56,11.4-4.99,24.28-7.52,38.28-7.52s25.86,2.72,37.15,8.09c11.24,5.35,20.43,12.83,27.32,22.21,6.27,8.5,9.82,18.12,10.57,28.62h-37.04c-1.17-7.57-5.14-13.95-11.83-19.01-7.28-5.52-16.64-8.32-27.83-8.32-10.06,0-18.4,2.14-24.79,6.36-6.8,4.5-10.25,10.58-10.25,18.06,0,6.22,2.23,11.43,6.62,15.5,4.04,3.79,9.27,6.76,15.52,8.79,5.89,1.92,14.14,4.13,24.52,6.57,15.13,3.53,27.48,7.27,36.7,11.11,9.09,3.76,17.04,9.61,23.65,17.39,6.47,7.6,9.75,18.25,9.75,31.66,0,12.39-3.32,23.24-9.88,32.26-6.6,9.05-15.89,16.08-27.58,20.9-11.84,4.87-25.49,7.34-40.59,7.34Z"/>
  <rect class="cls-1" x="1365.93" y="393.67" width="37.69" height="253.65"/>
  <polygon class="cls-1" points="1499.51 686.34 1523.1 633.56 1435.67 448.76 1477.26 448.76 1542.59 591.21 1604.97 448.76 1644.98 448.76 1538.75 686.34 1499.51 686.34"/>
  <path class="cls-1" d="M1297.34,393.66v83.55l-4.87-5.46c-3.33-3.75-7.18-7.27-11.41-10.46-7.32-5.48-15.76-9.74-25.09-12.66-9.41-2.88-19.63-4.35-30.41-4.35-17.36,0-33.98,4.48-49.43,13.31-15.41,8.83-27.92,21.32-37.16,37.18-9.24,15.82-13.92,33.76-13.92,53.27s4.68,37.47,13.92,53.31c9.22,15.8,21.73,28.31,37.16,37.16,15.41,8.83,32.05,13.31,49.43,13.31,16.38,0,30.99-3.27,43.44-9.72,9.29-4.76,17.6-11.25,24.68-19.24l4.87-5.52v29.98h36.49v-253.65h-37.7ZM1290.44,583.09c-5.29,9.4-12.86,16.45-12.86,16.45-3.52,3.28-7.41,6.18-11.64,8.67-10.32,6.1-21.99,9.18-34.67,9.18s-23.96-3.09-34.28-9.18c-10.3-6.06-18.53-14.5-24.5-25.11-5.91-10.56-8.92-22.34-8.92-35.06s3.01-24.81,8.94-35.26c5.95-10.48,14.18-18.85,24.48-24.89,10.35-6.1,21.9-9.18,34.28-9.18s24.31,3.09,34.67,9.18c4.75,2.79,9.06,6.07,12.91,9.82,0,0,6.76,6.59,11.57,15.07,10.96,19.32,11.51,49.9.02,70.32Z"/>
</svg>